<?xml version="1.0" standalone="no"?>
<!DOCTYPE svg PUBLIC "-//W3C//DTD SVG 20010904//EN"
 "http://www.w3.org/TR/2001/REC-SVG-20010904/DTD/svg10.dtd">
<svg version="1.0" xmlns="http://www.w3.org/2000/svg"
 width="1080.000000pt" height="1080.000000pt" viewBox="0 0 1080.000000 1080.000000"
 preserveAspectRatio="xMidYMid meet">
<metadata>
Created by potrace 1.14, written by Peter Selinger 2001-2017
</metadata>
<g transform="translate(0.000000,1080.000000) scale(0.100000,-0.100000)"
fill="#000000" stroke="none">
<path d="M0 5400 l0 -5400 303 0 302 0 24 56 c22 51 24 66 22 210 -2 118 2
173 15 228 l17 73 -37 114 c-35 104 -37 121 -34 204 3 80 9 101 47 189 32 74
50 135 68 235 13 74 26 138 29 142 2 4 13 56 24 114 29 156 50 218 192 570 22
55 62 161 88 235 26 74 69 194 94 265 26 72 55 155 65 185 11 30 40 114 66
185 26 72 56 157 66 190 10 33 27 89 39 125 12 36 29 101 40 145 149 646 443
1319 680 1556 137 137 256 215 465 302 198 83 280 109 620 196 37 10 42 14 53
58 38 142 78 249 106 286 40 51 119 96 186 104 34 4 61 14 77 29 26 24 95 53
183 78 43 12 69 29 118 76 61 59 62 61 56 102 -10 75 -21 94 -117 220 -52 68
-118 158 -147 201 -56 84 -151 269 -169 327 -5 19 -21 69 -36 110 -14 41 -25
82 -25 91 0 10 -18 31 -39 49 -49 38 -113 132 -140 205 -11 30 -30 107 -41
172 -11 64 -31 144 -44 178 -33 81 -40 147 -27 236 14 89 68 209 117 260 l35
36 -20 34 c-46 75 -17 149 59 149 38 0 48 9 39 35 -1 6 -6 72 -9 147 l-6 137
-62 60 c-82 80 -103 128 -117 276 -2 22 -7 55 -11 73 -4 22 -1 40 10 57 9 14
16 40 15 58 -2 45 26 193 48 252 14 37 31 59 66 85 34 25 47 42 47 60 0 14 7
38 15 54 8 15 15 41 15 57 0 15 7 44 15 64 8 19 21 50 29 68 9 20 33 47 62 66
26 17 57 48 68 68 12 20 43 52 70 72 82 59 249 74 336 31 l35 -18 71 69 c69
66 85 74 139 70 101 -8 132 -5 159 17 16 12 39 22 52 22 12 0 26 4 29 10 3 5
27 19 53 30 52 23 118 22 199 -5 51 -18 187 -38 228 -34 81 6 103 3 133 -23
23 -19 47 -28 94 -33 35 -4 85 -13 112 -21 27 -8 68 -14 91 -14 32 0 52 -7 80
-30 21 -16 41 -30 46 -30 4 0 16 -14 26 -30 21 -37 124 -100 162 -100 45 0
185 -103 202 -149 6 -14 25 -40 42 -57 60 -58 99 -109 143 -190 42 -77 44 -85
43 -160 0 -43 -4 -104 -8 -134 -7 -44 -4 -68 14 -125 23 -71 49 -190 81 -365
13 -75 16 -127 11 -251 l-6 -156 74 5 c63 4 78 2 109 -18 71 -43 135 -171 143
-285 4 -53 0 -89 -16 -145 -11 -41 -34 -139 -50 -218 -35 -169 -58 -222 -140
-323 -63 -79 -100 -104 -161 -112 -35 -4 -35 -4 -33 -48 9 -160 35 -530 39
-556 l6 -33 67 0 c79 0 160 -22 186 -50 23 -25 37 -25 53 0 6 11 30 29 52 40
97 49 192 6 297 -137 14 -20 63 -50 138 -88 132 -66 190 -116 236 -206 21 -42
41 -67 71 -85 58 -37 294 -148 359 -169 30 -10 75 -28 101 -41 52 -26 160
-122 185 -164 12 -21 47 -41 147 -83 73 -31 172 -68 221 -82 115 -33 180 -69
282 -153 45 -37 128 -103 185 -147 175 -136 536 -508 758 -780 140 -173 250
-360 413 -705 25 -52 104 -221 177 -375 243 -514 312 -685 435 -1080 26 -82
56 -170 67 -195 27 -58 85 -217 109 -300 11 -36 26 -85 33 -110 12 -38 14 634
15 4433 l1 4477 -5400 0 -5400 0 0 -5400z"/>
<path d="M4568 10378 c-17 -6 -28 -17 -28 -28 0 -22 -28 -34 -45 -20 -13 11
-45 4 -45 -9 0 -8 -49 -25 -104 -36 -15 -3 -35 -13 -43 -20 -21 -22 -33 -18
-33 10 0 21 -5 25 -28 25 -20 0 -41 -14 -80 -55 -29 -30 -52 -59 -52 -65 0 -5
-9 -10 -19 -10 -11 0 -23 -5 -26 -11 -9 -13 -61 -2 -100 22 -26 15 -45 17
-115 13 -109 -6 -158 -32 -201 -110 -17 -29 -38 -54 -46 -54 -8 0 -27 -9 -42
-20 -33 -22 -73 -123 -65 -158 4 -13 -1 -33 -11 -48 -9 -15 -20 -47 -24 -73
-5 -40 -11 -48 -41 -62 -56 -27 -69 -50 -92 -155 -24 -113 -28 -177 -15 -218
7 -21 6 -37 -7 -64 -22 -44 -13 -123 20 -191 25 -53 104 -130 132 -127 15 1
17 -13 17 -149 0 -82 4 -156 8 -162 19 -30 35 -12 42 45 3 31 15 75 25 97 69
151 80 183 116 360 22 113 21 111 64 163 100 121 171 177 214 166 22 -5 26 -3
26 15 0 12 5 21 11 21 5 0 8 -4 4 -9 -3 -5 -2 -12 3 -15 10 -6 72 34 117 74
17 15 44 33 62 39 18 7 39 24 48 37 14 22 44 36 31 15 -8 -12 67 10 75 22 10
14 95 21 103 8 10 -15 48 -14 81 3 23 12 34 12 75 0 27 -8 52 -14 57 -12 4 1
29 -2 56 -6 32 -6 47 -13 47 -23 0 -11 7 -14 25 -11 14 3 25 2 25 -2 0 -11
164 -2 168 10 4 11 33 14 31 3 -4 -25 3 -43 16 -43 13 0 13 3 3 20 -16 26 -4
36 27 22 32 -15 72 -15 80 -2 12 19 33 11 28 -10 -3 -11 -1 -20 5 -20 6 0 18
-3 28 -7 14 -5 16 -2 12 15 -4 12 -5 22 -5 22 1 -1 24 -7 51 -14 28 -7 52 -18
54 -24 2 -7 -3 -10 -12 -6 -9 3 -16 1 -16 -5 0 -6 7 -11 15 -11 14 0 19 -12
16 -32 0 -5 6 -8 15 -8 8 0 22 -6 30 -14 8 -9 27 -13 44 -11 35 5 37 -3 11
-45 -10 -17 -16 -41 -13 -55 6 -35 22 -31 22 5 0 17 5 30 10 30 6 0 10 -4 10
-10 0 -5 9 -10 20 -10 14 0 18 -5 13 -17 -4 -11 -8 -12 -11 -5 -6 19 -24 14
-20 -5 2 -10 12 -18 23 -18 12 0 19 -6 17 -14 -2 -7 4 -21 13 -31 14 -15 13
-18 -10 -30 -25 -13 -34 -30 -16 -30 5 0 12 -10 15 -22 6 -22 7 -22 20 -5 7 9
18 17 25 17 20 0 11 -15 -19 -32 -25 -14 -29 -22 -24 -43 5 -21 3 -25 -15 -25
-27 0 -27 -21 -1 -38 24 -15 28 -57 4 -48 -9 3 -12 2 -9 -5 4 -6 13 -8 20 -5
7 2 23 -5 35 -17 22 -19 22 -21 5 -27 -13 -5 -15 -9 -7 -14 7 -4 17 -4 22 -1
6 3 10 1 10 -4 0 -19 -5 -26 -14 -23 -5 2 -3 -4 4 -13 12 -14 11 -18 -1 -26
-8 -5 -19 -9 -26 -9 -6 0 -13 -5 -15 -11 -2 -6 -26 -12 -53 -14 -28 -2 -58 -6
-68 -10 -9 -4 -24 -2 -32 5 -11 9 -15 10 -15 1 0 -9 -15 -11 -54 -6 -66 9
-131 -1 -153 -23 -9 -9 -30 -16 -47 -17 -24 0 -32 -5 -34 -22 -4 -27 -29 -31
-35 -5 -3 13 -7 10 -16 -13 -25 -57 -28 -60 -62 -58 -23 1 -37 -5 -46 -18 -17
-23 -65 -36 -163 -44 -41 -3 -85 -8 -96 -10 -23 -5 -26 -27 -7 -61 11 -20 9
-23 -17 -34 -37 -15 -45 -10 -59 45 -12 49 -14 50 -114 59 -34 3 -72 13 -92
26 -26 16 -34 18 -29 6 5 -12 -2 -14 -36 -11 -23 2 -48 9 -56 16 -7 6 -20 9
-28 6 -8 -3 -17 1 -20 9 -3 9 -10 12 -16 9 -6 -3 -26 -1 -45 6 -27 10 -40 10
-62 0 -27 -12 -27 -13 -9 -27 24 -17 18 -19 -84 -33 -41 -6 -88 -13 -105 -15
-78 -11 -273 -71 -268 -82 2 -6 -6 -14 -19 -18 -13 -3 -32 -18 -43 -34 -41
-55 -29 -316 21 -469 55 -169 91 -188 354 -188 246 0 401 33 511 108 62 43 63
44 94 138 33 96 77 193 94 203 16 10 42 102 43 148 1 62 21 88 70 88 44 0 82
-16 73 -31 -4 -5 -11 -7 -16 -4 -5 4 -9 2 -9 -4 0 -5 5 -11 10 -13 7 -2 7 -13
0 -35 -14 -38 -8 -112 9 -122 7 -4 11 -12 9 -17 -1 -5 4 -20 12 -34 8 -14 17
-50 21 -80 4 -30 11 -66 15 -79 6 -19 4 -23 -7 -19 -12 5 -15 -4 -16 -43 -1
-40 2 -49 16 -47 14 3 16 -8 16 -71 0 -65 2 -75 20 -81 19 -7 19 -7 -3 -19
-28 -15 -28 -35 -1 -60 12 -11 18 -24 15 -29 -3 -5 9 -17 28 -26 42 -20 45
-20 67 0 15 14 19 12 39 -20 12 -20 26 -36 31 -36 13 0 11 -34 -3 -48 -14 -14
-48 -16 -48 -2 0 17 -63 43 -119 49 -63 7 -77 26 -29 37 l33 7 -34 9 c-26 7
-37 6 -53 -9 -11 -9 -17 -25 -15 -35 3 -10 2 -16 -2 -14 -10 7 -29 -61 -20
-75 5 -8 33 -13 75 -13 72 -1 89 -13 61 -44 -21 -23 -26 -90 -8 -101 9 -6 12
-19 8 -39 -5 -25 -3 -31 16 -35 12 -3 33 -9 46 -13 17 -5 22 -4 17 4 -10 17 5
15 44 -4 27 -14 34 -14 41 -3 22 35 3 79 -36 79 -11 0 -15 3 -9 8 6 4 13 15
17 25 7 19 22 22 32 7 3 -6 -1 -13 -9 -16 -9 -3 -13 -10 -10 -15 8 -14 46 11
40 27 -3 7 0 17 7 21 26 16 68 76 63 89 -3 8 -2 14 3 14 12 0 6 126 -8 180 -8
31 -9 46 -2 48 6 2 11 8 11 13 0 6 -4 8 -8 5 -5 -3 -9 1 -9 9 0 19 2 19 33 -1
36 -24 41 -9 8 20 -21 19 -25 25 -13 26 9 0 22 7 29 15 17 21 37 19 43 -5 3
-11 13 -20 24 -20 16 1 16 2 3 13 -8 7 -16 19 -18 28 -2 13 12 16 85 18 240 6
431 34 483 71 17 12 30 18 30 13 0 -4 -9 -14 -20 -21 -11 -7 -20 -22 -21 -35
0 -12 -3 -16 -6 -9 -2 6 -11 12 -19 12 -18 0 -14 -31 6 -47 13 -11 13 -12 -4
-13 -12 0 -16 -5 -12 -15 3 -8 3 -22 -1 -30 -5 -13 -8 -13 -20 5 -22 31 -28
24 -31 -32 -1 -29 -4 -64 -6 -78 -2 -14 -4 -29 -5 -34 0 -4 -8 -5 -17 -2 -12
5 -15 2 -10 -10 3 -8 -1 -25 -9 -37 -19 -27 -20 -43 -1 -28 7 6 21 9 30 5 18
-7 22 -44 5 -44 -5 0 -7 -5 -4 -11 4 -6 -1 -16 -11 -23 -22 -16 -10 -38 19
-34 14 2 23 -3 25 -15 3 -15 0 -18 -18 -12 -19 6 -21 4 -15 -17 4 -12 12 -26
17 -29 6 -4 6 -9 -1 -13 -7 -5 -4 -14 9 -29 12 -12 18 -28 14 -37 -7 -16 -7
-22 -2 -55 2 -14 -3 -21 -21 -23 -22 -4 -22 -4 -4 -17 24 -17 23 -46 0 -70
-10 -9 -15 -20 -12 -25 3 -4 -5 -10 -17 -14 -16 -4 -20 -8 -12 -16 15 -15 37
-4 49 23 6 13 20 23 35 25 l25 2 -22 -16 c-29 -21 -31 -48 -3 -41 15 4 20 0
20 -15 0 -10 4 -17 8 -14 4 2 9 -6 10 -20 1 -18 -3 -24 -18 -24 -14 0 -20 7
-20 23 0 28 -34 52 -48 34 -6 -7 -9 -25 -7 -40 4 -31 -18 -48 -37 -29 -8 8 -7
13 5 18 30 11 18 24 -15 17 -41 -7 -45 -10 -31 -24 12 -12 5 -49 -9 -49 -22 0
-68 36 -68 53 0 10 5 15 10 12 6 -3 10 -13 10 -21 0 -8 9 -14 20 -14 24 0 27
18 4 27 -10 4 -14 13 -10 26 7 29 -11 57 -38 57 -30 0 -37 9 -26 31 12 21 3
49 -15 49 -7 0 -16 7 -19 16 -4 12 -2 15 9 11 25 -10 25 8 0 37 -13 15 -21 34
-18 42 7 18 -33 59 -42 44 -3 -6 -4 -14 -1 -19 4 -5 -4 -7 -16 -3 -16 4 -20 2
-15 -10 3 -10 -6 -27 -24 -44 -23 -22 -29 -35 -24 -52 8 -31 -16 -25 -30 6 -5
13 -16 21 -24 20 -19 -4 -25 -48 -7 -48 7 0 25 -11 40 -25 15 -14 33 -25 40
-25 18 0 35 -67 29 -110 -3 -19 -2 -32 2 -28 11 11 42 -25 37 -44 -6 -26 -24
-22 -20 4 2 15 -3 24 -13 26 -12 2 -18 -7 -23 -34 -6 -27 -10 -34 -19 -25 -13
13 -41 15 -33 2 3 -5 -1 -11 -8 -14 -15 -6 -38 15 -34 29 1 5 -5 23 -15 40
-11 22 -14 43 -10 69 5 28 2 40 -10 46 -8 5 -18 23 -22 39 -4 17 -10 30 -14
30 -4 0 -18 10 -30 21 -17 16 -22 29 -17 50 4 24 0 33 -23 50 -17 12 -27 28
-24 35 6 15 -6 18 -22 6 -38 -27 -30 -128 8 -116 17 5 19 3 14 -17 -4 -13 -7
-27 -7 -31 0 -14 -27 -8 -51 11 -13 10 -37 21 -54 24 -16 3 -51 11 -77 18 -56
14 -66 9 -48 -26 12 -22 11 -27 -6 -40 -29 -22 -75 -19 -81 5 -3 12 -14 20
-27 20 -12 0 -27 -9 -34 -20 -9 -15 -23 -20 -60 -20 -26 0 -69 -6 -97 -14 -46
-12 -48 -13 -25 -21 14 -5 96 -8 183 -8 l158 1 -16 -24 c-9 -14 -13 -33 -10
-44 3 -10 1 -21 -4 -24 -6 -4 -8 -12 -5 -19 6 -18 144 -21 144 -4 0 7 5 4 11
-5 5 -10 21 -18 34 -18 26 0 31 -14 26 -67 -1 -14 9 -30 29 -45 25 -18 28 -25
17 -33 -8 -6 -13 -27 -13 -53 1 -23 -2 -43 -6 -45 -3 -1 -10 -14 -13 -29 -6
-22 -4 -28 9 -28 12 0 14 -7 9 -30 -5 -25 -3 -29 11 -24 9 3 16 1 16 -5 0 -6
-6 -11 -12 -11 -20 0 -59 -65 -52 -84 4 -11 1 -16 -10 -16 -20 0 -21 -14 -1
-30 20 -17 19 -24 -7 -35 -13 -6 -22 -13 -20 -17 3 -12 -36 -48 -52 -48 -8 0
-16 -6 -19 -14 -3 -7 -24 -16 -47 -20 -24 -4 -52 -13 -63 -21 -12 -8 -29 -15
-39 -15 -9 0 -26 -9 -37 -21 -12 -13 -21 -17 -26 -10 -12 20 -52 13 -58 -10
-5 -20 -10 -21 -54 -14 -26 4 -61 7 -76 6 -15 -1 -35 5 -43 14 -17 16 -34 20
-34 7 0 -4 5 -13 12 -20 23 -23 0 -23 -46 0 -38 18 -49 20 -55 9 -7 -10 -10
-10 -16 -1 -6 9 -9 9 -16 -1 -6 -11 -11 -10 -26 2 -10 9 -34 23 -54 32 -20 9
-44 28 -53 42 -17 25 -46 34 -46 14 0 -6 -9 -8 -20 -4 -29 9 -24 -11 9 -34 16
-11 36 -37 46 -57 14 -30 21 -35 41 -31 17 3 39 -5 67 -24 23 -16 46 -29 50
-29 4 0 17 -9 29 -20 21 -19 21 -20 2 -21 -14 0 -15 -2 -4 -6 16 -6 30 -23 30
-36 0 -31 -144 47 -155 84 -5 16 -10 18 -21 9 -20 -18 -79 22 -110 76 -14 24
-30 42 -34 39 -5 -3 -14 4 -20 15 -20 37 -31 21 -11 -18 26 -51 243 -265 281
-276 17 -5 30 -13 30 -17 0 -5 7 -9 15 -9 8 0 15 -4 15 -10 0 -5 14 -10 30
-10 17 0 30 -4 30 -10 0 -5 8 -10 19 -10 10 0 35 -7 55 -15 20 -8 48 -15 64
-14 15 0 65 -2 112 -6 47 -4 92 -7 100 -7 76 3 142 10 147 16 10 9 53 7 53 -3
0 -5 -6 -12 -12 -15 -7 -3 3 -4 22 -3 29 2 36 -2 38 -20 3 -22 5 -22 32 -8 16
8 37 15 48 15 10 0 22 3 26 7 4 4 36 8 72 9 48 1 67 -2 73 -13 7 -13 11 -13
32 -2 13 8 29 19 35 25 7 6 41 10 76 9 34 -1 68 1 73 5 6 4 26 10 46 14 27 5
40 2 49 -9 7 -9 21 -13 31 -10 13 4 19 1 19 -9 0 -17 51 -56 74 -56 10 0 17
-13 21 -37 4 -21 10 -47 15 -59 7 -17 -3 -33 -57 -90 -35 -38 -71 -80 -79 -94
-9 -14 -33 -36 -55 -48 -68 -39 -107 -81 -145 -155 -39 -76 -57 -103 -146
-212 -114 -140 -114 -140 -233 -181 -101 -36 -115 -44 -166 -97 -82 -85 -137
-95 -261 -50 -40 14 -112 36 -160 48 -115 30 -175 80 -169 141 3 28 -17 151
-32 194 -6 19 -19 47 -29 62 -10 14 -18 32 -18 40 0 7 -19 47 -41 88 -23 41
-45 89 -50 105 -4 17 -15 55 -24 85 -8 30 -17 112 -20 182 -3 71 -10 159 -15
196 -6 37 -13 86 -16 109 l-6 41 -70 -70 c-74 -73 -122 -108 -149 -108 -43 0
-148 -42 -186 -75 -34 -29 -49 -35 -88 -35 -103 0 -170 -76 -213 -241 -43
-163 -50 -177 -96 -194 -22 -8 -97 -28 -166 -45 -221 -52 -414 -122 -625 -227
-169 -84 -347 -242 -405 -358 -19 -38 -44 -81 -56 -95 -54 -61 -218 -414 -279
-600 -16 -47 -36 -103 -46 -125 -41 -93 -119 -354 -154 -515 -9 -41 -20 -91
-25 -110 -4 -19 -12 -55 -15 -80 -4 -25 -12 -48 -19 -52 -8 -5 -8 -10 1 -19
10 -10 7 -17 -10 -33 -12 -12 -28 -41 -36 -66 -7 -25 -17 -53 -22 -62 -5 -10
-9 -29 -9 -42 0 -13 -4 -26 -9 -28 -5 -1 -11 -14 -13 -28 -1 -14 -9 -31 -15
-38 -11 -11 -45 -108 -49 -137 0 -5 -9 -27 -18 -48 -9 -21 -14 -46 -11 -56 3
-10 -3 -29 -13 -42 -23 -29 -44 -88 -36 -100 3 -5 1 -9 -4 -9 -6 0 -13 -8 -17
-17 -13 -31 -65 -175 -100 -273 -18 -52 -47 -126 -64 -165 -94 -215 -166 -434
-187 -570 -6 -45 -6 -44 -23 -104 -7 -24 -13 -102 -14 -173 -2 -129 -2 -129
-24 -125 -22 4 -23 2 -17 -29 6 -33 -9 -49 -19 -21 -3 8 -7 6 -12 -6 -5 -13
-1 -23 14 -33 13 -9 21 -26 21 -43 0 -25 -3 -28 -25 -23 -20 3 -24 1 -19 -12
3 -9 11 -16 16 -16 6 0 6 -5 -1 -14 -6 -8 -14 -37 -18 -65 -4 -37 -9 -49 -16
-42 -35 35 -31 -13 11 -124 22 -61 34 -80 48 -80 20 0 21 -7 10 -85 -6 -44
-16 -70 -27 -70 -5 0 -9 -9 -9 -19 0 -14 5 -18 20 -14 21 5 28 -11 10 -22 -6
-3 -10 -15 -10 -26 0 -11 -7 -22 -16 -26 -15 -6 -15 -7 -1 -18 14 -10 13 -13
-3 -34 -16 -23 -16 -25 1 -42 13 -13 16 -27 12 -61 -3 -23 -9 -45 -13 -48 -9
-6 -5 -68 6 -94 5 -13 2 -23 -9 -31 -10 -7 -17 -15 -17 -19 0 -3 343 -6 761
-6 l762 0 -7 322 c-7 355 -13 531 -22 653 -3 44 -8 121 -10 170 -4 91 -7 118
-20 211 -7 55 5 76 31 54 18 -15 20 -31 3 -25 -9 4 -13 -7 -14 -32 0 -21 1
-32 3 -25 10 29 22 8 20 -35 -1 -34 2 -47 11 -45 6 1 12 -5 12 -13 0 -8 -6
-15 -13 -15 -9 0 -14 -12 -15 -30 0 -20 4 -30 14 -30 9 0 14 -11 14 -30 0 -16
-5 -30 -10 -30 -6 0 -4 -13 5 -30 9 -16 12 -30 8 -30 -4 0 -2 -5 5 -12 16 -16
15 -28 -3 -28 -9 0 -12 -6 -9 -15 4 -8 1 -22 -6 -30 -10 -12 -9 -16 3 -21 12
-4 13 -12 6 -37 -11 -39 -11 -46 0 -28 6 9 8 -5 8 -38 -1 -36 4 -55 14 -62 11
-7 11 -9 -3 -9 -24 0 -24 -46 0 -59 15 -9 15 -12 2 -21 -14 -9 -13 -11 9 -14
20 -2 22 -16 7 -46 -11 -23 -12 -36 -5 -48 13 -21 -6 -106 -21 -97 -6 4 -10
-1 -10 -9 0 -8 5 -18 11 -22 8 -5 9 -32 5 -90 -8 -91 -1 -104 38 -78 l25 16
-15 -31 c-8 -17 -20 -33 -25 -37 -5 -3 -8 -13 -5 -22 2 -10 8 -28 11 -41 6
-18 4 -23 -6 -19 -10 4 -15 -4 -16 -23 -1 -16 2 -29 6 -29 5 0 11 -14 13 -30
3 -23 1 -30 -9 -26 -8 3 -13 -2 -13 -14 0 -20 24 -20 3250 -20 l3250 0 0 144
c0 87 4 147 10 151 6 3 18 -8 28 -26 9 -17 32 -50 50 -72 26 -32 32 -47 27
-66 -3 -14 -9 -50 -12 -78 l-5 -53 966 0 966 0 0 765 0 765 -29 102 c-15 57
-43 157 -61 223 -35 129 -117 371 -142 420 -20 37 -56 144 -102 297 -76 252
-203 566 -369 908 -96 201 -137 286 -240 506 -207 445 -357 651 -807 1107
-174 177 -202 202 -451 400 -160 126 -248 175 -354 193 -40 7 -75 19 -150 54
-22 10 -73 32 -112 50 -60 27 -77 40 -98 76 -45 77 -135 140 -255 179 -74 24
-401 188 -421 211 -9 11 -31 47 -49 81 -41 79 -93 122 -214 179 -94 43 -166
95 -166 119 0 17 -65 82 -102 101 -43 22 -72 11 -125 -46 -25 -28 -53 -50 -63
-50 -9 0 -29 14 -46 31 -54 58 -101 71 -212 60 -40 -4 -77 -4 -82 -1 -29 18
-65 382 -65 645 l0 150 51 -3 c68 -5 103 14 143 77 18 27 39 55 47 62 34 28
65 114 93 256 16 81 36 167 45 190 28 79 29 124 6 193 -58 173 -118 207 -249
140 -81 -40 -88 -35 -73 62 22 141 26 326 9 413 -9 44 -24 123 -33 175 -9 52
-30 138 -45 190 -33 109 -35 137 -14 207 16 53 12 130 -7 168 -35 65 -101 154
-119 158 -14 4 -20 11 -16 20 7 18 -22 47 -46 47 -10 0 -18 12 -23 34 -10 54
-126 146 -184 146 -32 0 -180 94 -180 115 0 9 -8 18 -17 22 -10 3 -29 16 -43
28 -18 16 -42 24 -85 28 -33 4 -85 11 -115 18 -30 6 -69 12 -87 13 -17 1 -35
5 -39 9 -4 4 -18 7 -31 7 -16 0 -23 6 -23 20 0 23 -10 24 -81 9 -41 -9 -53 -9
-60 2 -5 8 -34 14 -76 17 -37 2 -77 7 -88 11 -11 5 -33 14 -48 20 -34 13 -92
13 -129 -1z m-793 -241 c-33 -11 -46 0 -21 19 15 11 22 11 34 2 12 -10 10 -14
-13 -21z m-35 -77 c0 -5 -4 -10 -10 -10 -5 0 -10 5 -10 10 0 6 5 10 10 10 6 0
10 -4 10 -10z m1594 -549 c-7 -8 -35 9 -29 19 4 6 11 5 20 -3 7 -6 11 -14 9
-16z m121 -81 c3 -5 1 -10 -4 -10 -6 0 -11 5 -11 10 0 6 2 10 4 10 3 0 8 -4
11 -10z m-2128 -52 c-3 -8 -6 -5 -6 6 -1 11 2 17 5 13 3 -3 4 -12 1 -19z m63
-243 c8 -31 -3 -24 -15 9 -8 22 -11 44 -7 50 3 6 9 -3 13 -19 3 -17 7 -34 9
-40z m14 -95 c13 -28 13 -30 -4 -30 -12 0 -19 9 -22 30 -3 17 -1 30 3 30 4 0
14 -13 23 -30z m2151 -169 c-3 -6 -18 -10 -33 -10 -21 1 -22 2 -7 6 11 3 24 9
29 14 12 11 20 4 11 -10z m428 -124 c4 -10 -2 -13 -19 -9 -13 2 -21 8 -18 13
8 14 31 11 37 -4z m-568 -36 c-6 -6 -61 -12 -123 -14 -84 -3 -116 -8 -123 -18
-6 -9 -4 -15 6 -17 9 -2 13 -8 10 -13 -4 -5 1 -9 9 -9 10 0 13 6 10 15 -4 10
0 15 12 16 11 1 37 3 58 5 22 2 46 -2 53 -7 7 -6 20 -9 28 -5 8 3 15 1 15 -4
0 -6 -5 -10 -11 -10 -5 0 -7 -5 -3 -11 3 -6 17 -8 30 -5 19 5 24 2 24 -13 0
-24 16 -36 24 -19 3 7 3 0 -1 -17 -8 -43 -21 -52 -32 -24 -7 17 -10 19 -10 7
-1 -10 -4 -18 -8 -18 -71 0 -287 -24 -323 -36 -25 -8 -53 -14 -61 -12 -8 2
-13 -3 -12 -9 2 -9 -7 -12 -30 -9 -34 4 -36 11 -12 55 11 19 14 21 15 9 0 -10
4 -18 9 -18 5 0 8 12 6 28 -2 15 -4 34 -4 42 -1 10 -6 7 -17 -8 -8 -12 -26
-22 -38 -22 -15 0 -31 -11 -42 -27 -11 -17 -19 -23 -22 -15 -2 7 2 20 10 29
11 14 11 16 -2 11 -9 -2 -17 -21 -20 -44 -4 -29 -7 -35 -13 -21 -8 21 1 67 13
67 5 0 11 9 15 20 11 36 177 98 320 120 75 11 251 12 240 1z m69 1 c5 -9 -41
-8 -51 1 -3 4 5 7 20 7 14 0 28 -4 31 -8z m125 -8 c2 -2 -16 -4 -42 -4 -25 0
-48 4 -51 9 -5 8 84 3 93 -5z m-1229 -89 c38 -10 64 -24 84 -46 l29 -33 -6
-135 c-8 -194 -51 -336 -119 -401 -62 -59 -253 -107 -468 -116 -135 -7 -257
11 -290 41 -55 50 -110 264 -112 435 -1 127 10 156 76 191 25 13 46 28 46 34
0 6 4 5 8 -1 5 -8 34 -5 102 12 52 13 136 28 185 33 120 13 395 5 465 -14z
m1463 -25 c3 -11 1 -20 -4 -20 -5 0 -9 9 -9 20 0 11 2 20 4 20 2 0 6 -9 9 -20z
m-1270 -106 c4 -23 1 -46 -8 -63 l-14 -26 -1 35 c0 19 -4 41 -9 49 -11 18 -3
41 14 41 7 0 15 -16 18 -36z m687 16 c9 -17 7 -20 -17 -26 -36 -9 -86 -34 -95
-48 -6 -8 -11 -7 -17 3 -8 12 -13 12 -35 -2 -31 -21 -40 -21 -33 -3 3 7 1 18
-5 24 -7 7 -3 12 11 17 12 3 21 12 21 19 0 18 48 34 107 35 43 1 54 -3 63 -19z
m-480 -56 c0 -8 -4 -12 -10 -9 -5 3 -10 10 -10 16 0 5 5 9 10 9 6 0 10 -7 10
-16z m29 -73 c6 -19 11 -41 10 -50 -1 -22 -38 59 -39 84 0 26 14 9 29 -34z
m441 13 c0 -30 -16 -28 -38 4 -14 21 -13 22 12 22 21 0 26 -5 26 -26z m201 3
c-13 -13 -26 -3 -16 12 3 6 11 8 17 5 6 -4 6 -10 -1 -17z m-287 -4 c3 -10 20
-33 36 -50 30 -32 53 -39 120 -34 43 2 1 -16 -53 -24 -80 -11 -90 -14 -99 -27
-24 -39 21 -79 94 -83 29 -1 67 -8 83 -16 17 -7 44 -14 60 -15 17 -2 46 -9 66
-15 25 -8 42 -8 56 -1 10 6 47 14 81 18 52 5 63 4 68 -10 3 -9 13 -16 21 -16
10 0 12 -6 8 -20 -5 -15 -2 -20 10 -20 11 0 15 5 11 15 -6 18 -1 19 25 5 26
-14 24 -25 -8 -39 -108 -49 -209 -65 -408 -64 -141 1 -179 4 -225 20 -40 14
-54 24 -52 36 4 22 -16 22 -20 0 -3 -14 -5 -14 -18 2 -13 17 -13 18 0 10 8 -4
5 3 -8 17 -15 17 -20 28 -13 33 8 4 6 13 -4 28 -19 27 -19 37 -1 37 8 0 18 -9
21 -20 3 -11 13 -20 21 -20 8 0 14 -7 14 -15 0 -9 9 -15 25 -15 14 0 25 5 25
10 0 6 -4 10 -8 10 -8 0 -16 14 -40 63 -2 4 7 7 20 7 13 0 34 9 48 20 27 21
21 27 -9 8 -20 -12 -51 -5 -51 12 0 5 10 10 23 10 22 1 22 1 -3 14 -14 8 -28
12 -32 10 -4 -3 -5 2 -2 10 3 9 16 17 28 17 11 1 28 2 36 3 8 0 31 -2 49 -6
19 -4 41 -3 49 1 16 9 -58 31 -105 31 -15 0 -34 4 -42 9 -19 12 -5 30 19 24
14 -4 27 3 41 21 24 30 35 33 43 9z m-326 -108 c-3 -3 -9 2 -12 12 -6 14 -5
15 5 6 7 -7 10 -15 7 -18z m876 -141 c4 -10 1 -14 -6 -12 -15 5 -23 28 -10 28
5 0 13 -7 16 -16z m-869 -314 c3 -5 1 -10 -4 -10 -6 0 -11 5 -11 10 0 6 2 10
4 10 3 0 8 -4 11 -10z m905 -50 c0 -5 -7 -10 -15 -10 -8 0 -15 5 -15 10 0 6 7
10 15 10 8 0 15 -4 15 -10z m15 -70 c3 -6 -1 -7 -9 -4 -18 7 -21 14 -7 14 6 0
13 -4 16 -10z m9 -222 c4 -17 2 -28 -4 -28 -5 0 -10 14 -10 32 0 36 4 35 14
-4z m-49 -28 c3 -5 -1 -10 -10 -10 -9 0 -13 5 -10 10 3 6 8 10 10 10 2 0 7 -4
10 -10z m334 -73 c-1 -31 -1 -31 -9 -7 -11 36 -11 52 0 45 6 -3 10 -21 9 -38z
m-52 -9 c-3 -7 -5 -2 -5 12 0 14 2 19 5 13 2 -7 2 -19 0 -25z m-197 -213 c0
-8 -4 -15 -10 -15 -5 0 -10 7 -10 15 0 8 5 15 10 15 6 0 10 -7 10 -15z m-310
-10 c9 -11 10 -19 2 -27 -14 -14 -32 -1 -32 23 0 23 13 25 30 4z m580 -35 c0
-5 -7 -10 -16 -10 -8 0 -12 5 -9 10 3 6 10 10 16 10 5 0 9 -4 9 -10z m-643
-16 c-3 -3 -12 -4 -19 -1 -8 3 -5 6 6 6 11 1 17 -2 13 -5z m40 -56 c7 -5 20
-8 30 -6 10 2 26 -5 36 -16 24 -27 21 -40 -5 -22 -12 9 -33 16 -45 16 -22 0
-63 27 -63 42 0 8 29 0 47 -14z m158 -17 c-8 -14 -45 -14 -45 0 0 5 4 8 8 5 4
-2 14 -1 22 4 17 11 25 6 15 -9z m-196 -27 c-12 -14 -39 -19 -39 -8 0 11 34
33 43 27 4 -3 3 -11 -4 -19z m81 -18 c0 -8 -4 -18 -10 -21 -5 -3 -10 3 -10 14
0 12 5 21 10 21 6 0 10 -6 10 -14z m-1050 -786 c6 -11 14 -19 18 -17 11 3 57
-36 65 -56 6 -15 4 -16 -15 -6 -19 10 -20 9 -15 -10 7 -28 -28 -29 -43 -1 -6
12 -22 25 -36 30 -26 10 -32 42 -11 65 17 19 24 18 37 -5z m104 -18 c2 -4 31
-7 63 -5 43 2 70 -4 105 -20 26 -12 48 -26 48 -31 0 -4 -8 -5 -17 0 -10 4 -36
8 -58 9 -22 0 -44 6 -48 13 -11 17 -27 15 -27 -3 0 -18 -20 -19 -57 -3 -31 14
-44 28 -37 40 7 10 21 10 28 0z m92 -95 c25 -15 16 -30 -13 -22 -16 4 -37 8
-48 10 -11 1 -23 3 -27 4 -5 0 -8 8 -8 17 0 11 6 14 20 9 11 -3 28 -2 37 4 13
7 19 6 22 -2 2 -7 10 -16 17 -20z m962 -572 c13 -13 12 -82 -2 -100 -14 -19
-15 -17 -16 32 0 42 -4 55 -22 67 -27 19 -52 7 -73 -34 -17 -33 -35 -40 -35
-12 1 20 27 54 55 69 15 9 28 8 54 -3 19 -8 37 -17 39 -19z m-1103 -984 c3 -5
1 -29 -4 -53 -16 -71 -17 -113 -3 -110 15 3 16 10 -12 -78 -13 -41 -27 -91
-31 -110 -7 -32 -46 -96 -68 -111 -5 -4 -25 -3 -46 2 -20 5 -51 9 -69 9 -63 0
-65 62 -4 131 43 50 148 210 157 239 19 64 63 108 80 81z m-2610 -811 c3 -5 1
-10 -4 -10 -6 0 -11 5 -11 10 0 6 2 10 4 10 3 0 8 -4 11 -10z m5 -29 c0 -6 -4
-13 -10 -16 -5 -3 -10 1 -10 9 0 9 5 16 10 16 6 0 10 -4 10 -9z m-8 -93 c-9
-9 -12 -7 -12 12 0 19 3 21 12 12 9 -9 9 -15 0 -24z m-192 -268 c0 -5 -5 -10
-11 -10 -5 0 -7 5 -4 10 3 6 8 10 11 10 2 0 4 -4 4 -10z m-252 -225 c0 -14 -4
-25 -9 -25 -10 0 -12 34 -2 43 10 10 11 9 11 -18z m-58 -119 c0 -3 -4 -8 -10
-11 -5 -3 -10 -1 -10 4 0 6 5 11 10 11 6 0 10 -2 10 -4z m1420 -59 c0 -7 -7
-22 -15 -33 -13 -17 -13 -16 -3 14 13 34 18 40 18 19z m-1413 -109 c-3 -8 -6
-5 -6 6 -1 11 2 17 5 13 3 -3 4 -12 1 -19z m1360 -40 c-3 -7 -5 -2 -5 12 0 14
2 19 5 13 2 -7 2 -19 0 -25z m-1367 7 c0 -8 -2 -15 -4 -15 -2 0 -6 7 -10 15
-3 8 -1 15 4 15 6 0 10 -7 10 -15z m13 -55 c3 -11 1 -20 -4 -20 -5 0 -9 9 -9
20 0 11 2 20 4 20 2 0 6 -9 9 -20z m466 -49 c-15 -41 -22 -34 -13 14 4 21 10
33 15 28 6 -6 5 -23 -2 -42z m281 -30 c0 -12 -20 -25 -27 -18 -7 7 6 27 18 27
5 0 9 -4 9 -9z m-298 -41 c-2 -16 -6 -30 -8 -30 -2 0 -4 14 -4 30 0 17 4 30 8
30 5 0 7 -13 4 -30z m850 -32 c-8 -8 -9 -4 -5 13 4 13 8 18 11 10 2 -7 -1 -18
-6 -23z m-832 -51 c0 -26 -15 -12 -25 23 -7 22 -6 23 9 11 9 -7 16 -23 16 -34z
m300 7 c0 -8 -4 -12 -10 -9 -5 3 -10 10 -10 16 0 5 5 9 10 9 6 0 10 -7 10 -16z
m-250 -100 c0 -20 -7 -17 -20 6 -9 16 -8 18 5 14 8 -4 15 -12 15 -20z m230
-24 c0 -5 -2 -10 -4 -10 -3 0 -8 5 -11 10 -3 6 -1 10 4 10 6 0 11 -4 11 -10z
m-35 -60 c3 -5 1 -10 -4 -10 -6 0 -11 5 -11 10 0 6 2 10 4 10 3 0 8 -4 11 -10z
m45 -84 c0 -3 -4 -8 -10 -11 -5 -3 -10 -1 -10 4 0 6 5 11 10 11 6 0 10 -2 10
-4z m-145 -126 c3 -5 1 -10 -4 -10 -6 0 -11 5 -11 10 0 6 2 10 4 10 3 0 8 -4
11 -10z m165 -25 c0 -15 -30 -48 -37 -41 -3 3 1 18 8 35 13 29 29 33 29 6z
m-146 -51 c3 -8 2 -12 -4 -9 -6 3 -10 10 -10 16 0 14 7 11 14 -7z m129 -35 c3
-11 0 -37 -8 -57 -10 -30 -14 -33 -20 -19 -4 9 -4 25 0 35 5 9 7 27 6 40 -3
28 15 29 22 1z m19 -91 c-6 -6 -15 -8 -19 -4 -4 4 -1 11 7 16 19 12 27 3 12
-12z m-105 -40 c-3 -8 -6 -5 -6 6 -1 11 2 17 5 13 3 -3 4 -12 1 -19z m63 -21
c-10 -9 -11 -9 -6 1 4 6 3 12 -3 12 -6 0 -8 7 -4 16 5 15 7 15 16 -1 6 -12 5
-21 -3 -28z m-4 -124 c-11 -11 -19 6 -11 24 8 17 8 17 12 0 3 -10 2 -21 -1
-24z m1 -30 c-4 -3 -2 -12 4 -20 18 -21 20 -83 3 -83 -9 0 -14 11 -14 33 0 17
-3 42 -6 55 -4 14 -2 22 7 22 7 0 9 -3 6 -7z m2777 -23 c-1 -14 -7 -87 -15
-162 -11 -119 -15 -138 -30 -138 -10 0 -21 4 -24 10 -5 8 16 199 32 288 7 40
39 42 37 2z m-2714 -50 c0 -5 -4 -10 -10 -10 -5 0 -10 5 -10 10 0 6 5 10 10
10 6 0 10 -4 10 -10z m-13 -107 c-1 -48 -7 -83 -15 -92 -7 -7 -14 -12 -16 -10
-8 9 -12 159 -4 159 4 0 8 -7 8 -16 0 -8 4 -13 9 -10 5 3 7 15 4 26 -3 11 -1
20 5 20 6 0 10 -30 9 -77z m-1331 -29 c-9 -25 -24 -7 -18 22 4 23 6 24 14 10
5 -10 7 -24 4 -32z m1355 13 c-10 -9 -11 -8 -5 6 3 10 9 15 12 12 3 -3 0 -11
-7 -18z m399 -1 c0 -3 -4 -8 -10 -11 -5 -3 -10 -1 -10 4 0 6 5 11 10 11 6 0
10 -2 10 -4z m-23 -98 c-3 -8 -6 -5 -6 6 -1 11 2 17 5 13 3 -3 4 -12 1 -19z
m-3 -78 c4 -25 3 -31 -4 -20 -5 8 -10 26 -10 39 0 32 6 24 14 -19z m39 -73
c16 -11 17 -23 7 -137 -14 -159 -16 -167 -40 -173 -19 -5 -20 0 -20 61 0 37 3
111 7 165 6 99 12 110 46 84z m-348 -435 c-8 -8 -25 10 -19 20 4 6 9 5 15 -3
4 -7 6 -15 4 -17z"/>
<path d="M4148 8603 c7 -3 16 -2 19 1 4 3 -2 6 -13 5 -11 0 -14 -3 -6 -6z"/>
<path d="M4198 8603 c7 -3 16 -2 19 1 4 3 -2 6 -13 5 -11 0 -14 -3 -6 -6z"/>
<path d="M4295 8489 c-13 -5 -15 -8 -5 -9 13 0 13 -2 -1 -13 -9 -7 -14 -17
-12 -22 2 -7 -24 -9 -73 -7 l-76 4 17 -26 c12 -18 14 -26 5 -26 -10 0 -10 -3
0 -15 11 -13 8 -15 -16 -16 -115 -3 -223 -41 -278 -98 -49 -51 11 -33 97 30
52 38 65 37 73 -6 3 -19 18 -46 32 -60 23 -23 32 -26 85 -23 l60 3 30 58 31
58 14 -27 c12 -24 16 -25 26 -12 13 17 36 13 36 -7 0 -15 -27 -28 -41 -19 -5
3 -25 -7 -45 -22 -35 -27 -35 -28 -14 -36 12 -4 26 -5 31 -2 5 3 16 -1 24 -10
13 -13 13 -15 -5 -21 -22 -7 -27 -30 -9 -41 6 -3 16 -1 22 5 6 6 24 11 40 11
15 0 26 4 23 8 -3 5 4 14 14 22 25 18 16 32 -16 24 -30 -8 -31 9 -1 25 19 10
22 19 19 47 -4 29 -1 34 17 34 12 0 21 4 21 8 0 16 -40 84 -56 96 -9 7 -14 18
-10 25 4 6 0 14 -9 17 -9 4 -14 12 -11 20 7 19 -16 33 -39 23z m30 -49 c3 -5
1 -10 -4 -10 -6 0 -11 5 -11 10 0 6 2 10 4 10 3 0 8 -4 11 -10z m-212 -162
c-2 -24 2 -38 10 -38 8 0 7 -3 -2 -9 -8 -5 -19 -7 -25 -5 -14 5 -19 44 -5 44
5 0 9 5 9 10 0 6 -10 8 -24 4 -13 -3 -27 -1 -30 5 -12 19 5 32 37 29 30 -3 32
-5 30 -40z"/>
<path d="M3511 8374 c0 -11 3 -14 6 -6 3 7 2 16 -1 19 -3 4 -6 -2 -5 -13z"/>
<path d="M5120 8080 c8 -5 20 -10 25 -10 6 0 3 5 -5 10 -8 5 -19 10 -25 10 -5
0 -3 -5 5 -10z"/>
<path d="M4412 4350 c-44 -81 -42 -90 13 -90 40 0 46 3 61 31 13 26 13 33 3
40 -7 4 -17 5 -21 3 -4 -3 -8 13 -8 35 0 23 -3 41 -8 41 -4 0 -22 -27 -40 -60z"/>
<path d="M4291 4164 c-28 -36 -16 -47 56 -52 48 -3 63 0 83 16 20 17 23 24 14
39 -8 14 -26 19 -71 21 -56 3 -63 1 -82 -24z"/>
<path d="M5360 9450 c-8 -5 -12 -11 -9 -14 2 -3 11 -1 19 4 8 5 12 11 9 14 -2
3 -11 1 -19 -4z"/>
<path d="M3275 9271 c-3 -5 -1 -12 5 -16 5 -3 10 1 10 9 0 18 -6 21 -15 7z"/>
<path d="M4220 8710 c0 -5 7 -10 16 -10 8 0 12 5 9 10 -3 6 -10 10 -16 10 -5
0 -9 -4 -9 -10z"/>
<path d="M3360 8444 c0 -3 13 -23 29 -43 45 -56 57 -87 41 -106 -10 -12 -10
-15 4 -15 37 0 5 125 -39 154 -26 17 -35 20 -35 10z"/>
<path d="M3300 7950 c1 -8 7 -28 16 -45 l14 -30 -5 35 c-5 35 -25 67 -25 40z"/>
<path d="M5675 7930 c-3 -5 1 -10 9 -10 9 0 16 5 16 10 0 6 -4 10 -9 10 -6 0
-13 -4 -16 -10z"/>
<path d="M5620 7851 c0 -5 6 -11 13 -14 8 -3 7 -9 -5 -18 -17 -13 -17 -16 2
-46 21 -35 48 -46 35 -15 -7 15 -10 33 -14 85 -1 17 -31 25 -31 8z"/>
<path d="M4442 7648 c-7 -7 -12 -21 -12 -31 0 -16 5 -19 31 -13 17 3 43 6 58
6 l26 1 -28 24 c-31 27 -56 32 -75 13z"/>
<path d="M5637 7479 c7 -7 15 -10 18 -7 3 3 -2 9 -12 12 -14 6 -15 5 -6 -5z"/>
<path d="M5458 7363 c7 -3 16 -2 19 1 4 3 -2 6 -13 5 -11 0 -14 -3 -6 -6z"/>
<path d="M5150 7346 c0 -8 5 -18 11 -22 6 -3 9 -17 6 -30 -5 -26 10 -33 19 -9
4 8 13 15 21 15 8 0 13 6 11 13 -3 6 -10 12 -17 12 -7 0 -18 8 -25 18 -16 21
-26 22 -26 3z"/>
<path d="M4785 7280 c3 -5 10 -10 16 -10 5 0 9 5 9 10 0 6 -7 10 -16 10 -8 0
-12 -4 -9 -10z"/>
<path d="M4372 7169 c-53 -39 -55 -57 -2 -24 22 14 46 25 53 25 7 0 22 7 33
15 18 14 17 14 -12 15 -18 0 -46 -12 -72 -31z"/>
<path d="M4193 7100 c-35 -21 -46 -47 -15 -35 9 3 31 9 47 12 17 3 38 10 49
15 15 8 16 12 5 19 -22 14 -52 10 -86 -11z"/>
<path d="M3860 6601 c0 -6 4 -13 10 -16 6 -3 7 1 4 9 -7 18 -14 21 -14 7z"/>
<path d="M3920 6521 c0 -5 23 -34 51 -63 28 -29 45 -44 38 -33 -8 11 -19 26
-26 33 -7 7 -20 26 -30 42 -17 29 -33 39 -33 21z"/>
<path d="M5375 5970 c-3 -5 1 -10 9 -10 9 0 16 5 16 10 0 6 -4 10 -9 10 -6 0
-13 -4 -16 -10z"/>
<path d="M725 1000 c-8 -13 5 -13 25 0 13 8 13 10 -2 10 -9 0 -20 -4 -23 -10z"/>
<path d="M680 855 c0 -9 6 -12 15 -9 8 4 12 10 9 15 -8 14 -24 10 -24 -6z"/>
<path d="M721 224 c0 -11 3 -14 6 -6 3 7 2 16 -1 19 -3 4 -6 -2 -5 -13z"/>
</g>
</svg>
